PathFileType	4	(X/Y/Z)	C:\Users\86182\Documents\cortex\Trimmed_M1_L4.trc
DataRate	CameraRate	NumFrames	NumMarkers	Units	OrigDataRate	OrigDataStartFrame	OrigNumFrames
100.00	100.00	       56	2	mm	100.00	381	       951
Frame#	Time	gripper			box			
		X1	Y1	Z1	X2	Y2	Z2	

381	3.800	197.62782	194.15973	273.01495	200.61810	192.86346	138.14276	
382	3.810	197.57626	194.15172	273.50961	200.48701	192.91664	138.69980	
383	3.820	197.99416	194.20485	273.89859	200.56589	192.93195	139.02736	
384	3.830	197.90707	194.19772	274.43542	200.49028	192.76909	139.43422	
385	3.840	197.62502	194.07512	274.96353	200.70123	192.86365	139.66119	
386	3.850	197.77286	194.21863	275.29333	200.61923	192.99361	140.34441	
387	3.860	197.66061	194.17661	275.67697	200.54779	192.94290	140.89731	
388	3.870	197.47948	194.08588	276.06323	200.46172	192.77374	141.21550	
389	3.880	197.71445	194.15863	276.70544	200.33771	192.96683	141.44411	
390	3.890	197.72395	194.27510	277.02222	200.49742	193.10678	141.81610	
391	3.900	197.68327	194.23859	277.32797	200.29477	193.02847	142.38081	
392	3.910	197.63080	194.10292	277.72113	200.34531	192.92589	142.93523	
393	3.920	197.40060	194.18881	278.17432	200.24260	192.96581	143.24744	
394	3.930	197.59103	194.30865	278.75253	200.38759	193.08217	143.56120	
395	3.940	197.62933	194.22479	279.10739	200.24191	193.16888	144.14371	
396	3.950	197.71570	194.16104	279.46497	200.06192	193.05040	144.52167	
397	3.960	197.61414	194.11009	279.86234	200.12576	193.02031	144.73260	
398	3.970	197.54388	194.24149	280.30078	200.41756	193.09296	145.43068	
399	3.980	197.58090	194.35703	280.83304	200.62192	193.06619	145.83327	
400	3.990	197.72758	194.31567	281.25183	200.45509	193.14767	146.10823	
401	4.000	197.90648	194.17914	281.65961	200.05128	193.07768	146.59303	
402	4.010	197.77080	194.11934	281.95300	200.42966	193.03896	147.10599	
403	4.020	197.77489	194.30470	282.42172	200.63570	193.09036	147.58598	
404	4.030	197.60623	194.34010	282.93591	200.74077	193.14404	147.81297	
405	4.040	197.93126	194.28642	283.38806	200.39722	193.06770	148.34848	
406	4.050	198.00969	194.22195	283.72391	200.24957	193.17570	148.93547	
407	4.060	197.94598	194.21109	284.12421	200.37537	193.12296	149.20528	
408	4.070	197.63478	194.29405	284.56442	200.56154	193.18190	149.42183	
409	4.080	197.76785	194.32327	284.90814	200.60495	193.11066	149.95842	
410	4.090	197.77672	194.33949	285.53021	200.45221	193.11453	150.54514	
411	4.100	197.88087	194.22569	285.87302	200.28227	193.20947	150.98740	
412	4.110	197.88702	194.23573	286.17761	200.28403	193.26418	151.13580	
413	4.120	197.76300	194.41386	286.61539	200.33652	193.06435	151.46498	
414	4.130	197.69852	194.29713	287.05490	200.39738	193.07347	152.10674	
415	4.140	197.70673	194.30684	287.55130	200.32568	193.19513	152.55943	
416	4.150	197.68283	194.34755	287.88232	200.37376	193.11386	152.87325	
417	4.160	197.78413	194.40627	288.24106	200.25208	193.16113	153.34360	
418	4.170	197.82014	194.31108	288.80865	200.42441	193.15250	153.63417	
419	4.180	197.65797	194.29796	289.07706	200.45251	193.21548	153.93112	
420	4.190	197.71030	194.34872	289.37653	200.30098	193.14034	154.48569	
421	4.200	197.77878	194.40852	289.94250	200.25818	193.07674	154.81825	
422	4.210	197.74239	194.39252	290.23691	200.35027	193.10312	155.42513	
423	4.220	197.88994	194.32629	290.49020	200.42545	193.20633	155.57620	
424	4.230	197.90192	194.33635	290.83643	200.49741	193.23114	155.74667	
425	4.240	197.91241	194.36414	291.16827	200.23511	193.11911	156.01500	
426	4.250	197.89746	194.38792	291.31790	200.18050	193.02423	156.28893	
427	4.260	197.82607	194.34732	291.71204	200.29727	193.09229	156.72604	
428	4.270	197.81808	194.41043	291.99124	200.46623	193.10519	157.06129	
429	4.280	197.87805	194.42973	292.11011	200.41483	193.17509	157.23952	
430	4.290	198.01338	194.44966	292.26413	200.64824	193.40199	157.42934	
431	4.300	198.02083	194.47014	292.34497	200.66551	193.35199	157.57565	
432	4.310	197.99318	194.49570	292.63235	200.58900	193.29691	157.68138	
433	4.320	197.79926	194.41924	292.86694	200.56268	193.22040	157.74348	
434	4.330	197.86775	194.49022	292.92474	200.56686	193.18510	157.82117	
435	4.340	197.88919	194.48009	292.97330	200.42969	193.17113	157.93976	
436	4.350	197.85841	194.44695	293.12042	200.46490	193.18268	157.98453	
